<mxfile host="Electron" modified="2024-01-20T00:48:12.324Z" agent="Mozilla/5.0 (Macintosh; Intel Mac OS X 10_15_7) AppleWebKit/537.36 (KHTML, like Gecko) draw.io/22.1.18 Chrome/120.0.6099.199 Electron/28.1.2 Safari/537.36" etag="em-RCFJzaY6tnQdujiGF" version="22.1.18" type="device">
  <diagram name="第 1 页" id="UbCNwrayTa-YlMIXwO39">
    <mxGraphModel dx="852" dy="545" grid="0" gridSize="10" guides="1" tooltips="1" connect="1" arrows="1" fold="1" page="1" pageScale="1" pageWidth="1654" pageHeight="2336" math="0" shadow="0">
      <root>
        <mxCell id="0" />
        <mxCell id="1" parent="0" />
        <mxCell id="7qTobX-p7lnl2lWaWMDp-57" value="" style="rounded=0;whiteSpace=wrap;html=1;strokeColor=none;fillColor=none;" parent="1" vertex="1">
          <mxGeometry x="163" y="191" width="622" height="246" as="geometry" />
        </mxCell>
        <mxCell id="7qTobX-p7lnl2lWaWMDp-17" value="&lt;font style=&quot;font-size: 18px;&quot; face=&quot;Times New Roman&quot;&gt;&lt;b&gt;P0&lt;/b&gt;&lt;/font&gt;" style="text;html=1;strokeColor=none;fillColor=none;align=center;verticalAlign=middle;whiteSpace=wrap;rounded=0;fontColor=default;" parent="1" vertex="1">
          <mxGeometry x="159" y="223" width="60" height="30" as="geometry" />
        </mxCell>
        <mxCell id="7qTobX-p7lnl2lWaWMDp-18" value="&lt;font style=&quot;font-size: 18px;&quot; face=&quot;Times New Roman&quot;&gt;&lt;b&gt;P1&lt;/b&gt;&lt;/font&gt;" style="text;html=1;strokeColor=none;fillColor=none;align=center;verticalAlign=middle;whiteSpace=wrap;rounded=0;fontColor=default;" parent="1" vertex="1">
          <mxGeometry x="159" y="275" width="60" height="30" as="geometry" />
        </mxCell>
        <mxCell id="7qTobX-p7lnl2lWaWMDp-19" value="&lt;font style=&quot;font-size: 18px;&quot; face=&quot;Times New Roman&quot;&gt;&lt;b&gt;P2&lt;/b&gt;&lt;/font&gt;" style="text;html=1;strokeColor=none;fillColor=none;align=center;verticalAlign=middle;whiteSpace=wrap;rounded=0;fontColor=default;" parent="1" vertex="1">
          <mxGeometry x="159" y="325" width="60" height="30" as="geometry" />
        </mxCell>
        <mxCell id="7qTobX-p7lnl2lWaWMDp-20" value="&lt;font style=&quot;font-size: 18px;&quot; face=&quot;Times New Roman&quot;&gt;&lt;b&gt;P3&lt;/b&gt;&lt;/font&gt;" style="text;html=1;strokeColor=none;fillColor=none;align=center;verticalAlign=middle;whiteSpace=wrap;rounded=0;fontColor=default;" parent="1" vertex="1">
          <mxGeometry x="159" y="375" width="60" height="30" as="geometry" />
        </mxCell>
        <mxCell id="7qTobX-p7lnl2lWaWMDp-21" value="" style="html=1;shadow=0;dashed=0;align=center;verticalAlign=middle;shape=mxgraph.arrows2.arrow;dy=0.6;dx=40;notch=15;fillColor=#023047;" parent="1" vertex="1">
          <mxGeometry x="412" y="291" width="155" height="48" as="geometry" />
        </mxCell>
        <mxCell id="7qTobX-p7lnl2lWaWMDp-22" value="&lt;font style=&quot;font-size: 20px;&quot;&gt;&lt;b style=&quot;&quot;&gt;&lt;i&gt;Allgather&lt;/i&gt;&lt;/b&gt;&lt;/font&gt;" style="text;html=1;strokeColor=none;fillColor=none;align=center;verticalAlign=middle;whiteSpace=wrap;rounded=0;" parent="1" vertex="1">
          <mxGeometry x="415" y="263" width="134" height="30" as="geometry" />
        </mxCell>
        <mxCell id="7qTobX-p7lnl2lWaWMDp-23" value="&lt;font style=&quot;font-size: 18px;&quot; face=&quot;Times New Roman&quot;&gt;&lt;b&gt;A&lt;/b&gt;&lt;/font&gt;" style="whiteSpace=wrap;html=1;aspect=fixed;fillColor=#FFB703;" parent="1" vertex="1">
          <mxGeometry x="609" y="219" width="38" height="38" as="geometry" />
        </mxCell>
        <mxCell id="7qTobX-p7lnl2lWaWMDp-24" value="&lt;b style=&quot;border-color: var(--border-color); font-family: &amp;quot;Times New Roman&amp;quot;; font-size: 18px;&quot;&gt;B&lt;/b&gt;" style="whiteSpace=wrap;html=1;aspect=fixed;fillColor=#FFB703;" parent="1" vertex="1">
          <mxGeometry x="647" y="219" width="38" height="38" as="geometry" />
        </mxCell>
        <mxCell id="7qTobX-p7lnl2lWaWMDp-25" value="&lt;b style=&quot;border-color: var(--border-color); font-family: &amp;quot;Times New Roman&amp;quot;; font-size: 18px;&quot;&gt;C&lt;/b&gt;" style="whiteSpace=wrap;html=1;aspect=fixed;fillColor=#FFB703;" parent="1" vertex="1">
          <mxGeometry x="685" y="219" width="38" height="38" as="geometry" />
        </mxCell>
        <mxCell id="7qTobX-p7lnl2lWaWMDp-26" value="&lt;b style=&quot;border-color: var(--border-color); font-family: &amp;quot;Times New Roman&amp;quot;; font-size: 18px;&quot;&gt;D&lt;/b&gt;" style="whiteSpace=wrap;html=1;aspect=fixed;fillColor=#FFB703;" parent="1" vertex="1">
          <mxGeometry x="723" y="219" width="38" height="38" as="geometry" />
        </mxCell>
        <mxCell id="7qTobX-p7lnl2lWaWMDp-27" value="&lt;b style=&quot;border-color: var(--border-color); font-family: &amp;quot;Times New Roman&amp;quot;; font-size: 18px;&quot;&gt;A&lt;/b&gt;" style="whiteSpace=wrap;html=1;aspect=fixed;fillColor=#90C9E6;" parent="1" vertex="1">
          <mxGeometry x="609" y="271" width="38" height="38" as="geometry" />
        </mxCell>
        <mxCell id="7qTobX-p7lnl2lWaWMDp-28" value="&lt;b style=&quot;border-color: var(--border-color); font-family: &amp;quot;Times New Roman&amp;quot;; font-size: 18px;&quot;&gt;B&lt;/b&gt;" style="whiteSpace=wrap;html=1;aspect=fixed;fillColor=#90C9E6;" parent="1" vertex="1">
          <mxGeometry x="647" y="271" width="38" height="38" as="geometry" />
        </mxCell>
        <mxCell id="7qTobX-p7lnl2lWaWMDp-29" value="&lt;b style=&quot;border-color: var(--border-color); font-family: &amp;quot;Times New Roman&amp;quot;; font-size: 18px;&quot;&gt;C&lt;/b&gt;" style="whiteSpace=wrap;html=1;aspect=fixed;fillColor=#90C9E6;" parent="1" vertex="1">
          <mxGeometry x="685" y="271" width="38" height="38" as="geometry" />
        </mxCell>
        <mxCell id="7qTobX-p7lnl2lWaWMDp-30" value="&lt;b style=&quot;border-color: var(--border-color); font-family: &amp;quot;Times New Roman&amp;quot;; font-size: 18px;&quot;&gt;D&lt;/b&gt;" style="whiteSpace=wrap;html=1;aspect=fixed;fillColor=#90C9E6;" parent="1" vertex="1">
          <mxGeometry x="723" y="271" width="38" height="38" as="geometry" />
        </mxCell>
        <mxCell id="7qTobX-p7lnl2lWaWMDp-31" value="&lt;b style=&quot;border-color: var(--border-color); font-family: &amp;quot;Times New Roman&amp;quot;; font-size: 18px;&quot;&gt;A&lt;/b&gt;" style="whiteSpace=wrap;html=1;aspect=fixed;fillColor=#FB8402;" parent="1" vertex="1">
          <mxGeometry x="609" y="321" width="38" height="38" as="geometry" />
        </mxCell>
        <mxCell id="7qTobX-p7lnl2lWaWMDp-32" value="&lt;b style=&quot;border-color: var(--border-color); font-family: &amp;quot;Times New Roman&amp;quot;; font-size: 18px;&quot;&gt;B&lt;/b&gt;" style="whiteSpace=wrap;html=1;aspect=fixed;fillColor=#FB8402;" parent="1" vertex="1">
          <mxGeometry x="647" y="321" width="38" height="38" as="geometry" />
        </mxCell>
        <mxCell id="7qTobX-p7lnl2lWaWMDp-33" value="&lt;b style=&quot;border-color: var(--border-color); font-family: &amp;quot;Times New Roman&amp;quot;; font-size: 18px;&quot;&gt;C&lt;/b&gt;" style="whiteSpace=wrap;html=1;aspect=fixed;fillColor=#FB8402;" parent="1" vertex="1">
          <mxGeometry x="685" y="321" width="38" height="38" as="geometry" />
        </mxCell>
        <mxCell id="7qTobX-p7lnl2lWaWMDp-34" value="&lt;b style=&quot;border-color: var(--border-color); font-family: &amp;quot;Times New Roman&amp;quot;; font-size: 18px;&quot;&gt;D&lt;/b&gt;" style="whiteSpace=wrap;html=1;aspect=fixed;fillColor=#FB8402;" parent="1" vertex="1">
          <mxGeometry x="723" y="321" width="38" height="38" as="geometry" />
        </mxCell>
        <mxCell id="7qTobX-p7lnl2lWaWMDp-35" value="&lt;b style=&quot;border-color: var(--border-color); font-family: &amp;quot;Times New Roman&amp;quot;; font-size: 18px;&quot;&gt;A&lt;/b&gt;" style="whiteSpace=wrap;html=1;aspect=fixed;fillColor=#219EBC;" parent="1" vertex="1">
          <mxGeometry x="609" y="371" width="38" height="38" as="geometry" />
        </mxCell>
        <mxCell id="7qTobX-p7lnl2lWaWMDp-36" value="&lt;b style=&quot;border-color: var(--border-color); font-family: &amp;quot;Times New Roman&amp;quot;; font-size: 18px;&quot;&gt;B&lt;/b&gt;" style="whiteSpace=wrap;html=1;aspect=fixed;fillColor=#219EBC;" parent="1" vertex="1">
          <mxGeometry x="647" y="371" width="38" height="38" as="geometry" />
        </mxCell>
        <mxCell id="7qTobX-p7lnl2lWaWMDp-37" value="&lt;b style=&quot;border-color: var(--border-color); font-family: &amp;quot;Times New Roman&amp;quot;; font-size: 18px;&quot;&gt;C&lt;/b&gt;" style="whiteSpace=wrap;html=1;aspect=fixed;fillColor=#219EBC;" parent="1" vertex="1">
          <mxGeometry x="685" y="371" width="38" height="38" as="geometry" />
        </mxCell>
        <mxCell id="7qTobX-p7lnl2lWaWMDp-38" value="&lt;b style=&quot;border-color: var(--border-color); font-family: &amp;quot;Times New Roman&amp;quot;; font-size: 18px;&quot;&gt;D&lt;/b&gt;" style="whiteSpace=wrap;html=1;aspect=fixed;fillColor=#219EBC;" parent="1" vertex="1">
          <mxGeometry x="723" y="371" width="38" height="38" as="geometry" />
        </mxCell>
        <mxCell id="7qTobX-p7lnl2lWaWMDp-41" value="&lt;font style=&quot;font-size: 18px;&quot; face=&quot;Times New Roman&quot;&gt;&lt;b&gt;A&lt;/b&gt;&lt;/font&gt;" style="whiteSpace=wrap;html=1;aspect=fixed;fillColor=#FFB703;" parent="1" vertex="1">
          <mxGeometry x="219" y="219" width="38" height="38" as="geometry" />
        </mxCell>
        <mxCell id="7qTobX-p7lnl2lWaWMDp-42" value="" style="whiteSpace=wrap;html=1;aspect=fixed;fillColor=#FFB703;" parent="1" vertex="1">
          <mxGeometry x="257" y="219" width="38" height="38" as="geometry" />
        </mxCell>
        <mxCell id="7qTobX-p7lnl2lWaWMDp-43" value="" style="whiteSpace=wrap;html=1;aspect=fixed;fillColor=#FFB703;" parent="1" vertex="1">
          <mxGeometry x="295" y="219" width="38" height="38" as="geometry" />
        </mxCell>
        <mxCell id="7qTobX-p7lnl2lWaWMDp-44" value="" style="whiteSpace=wrap;html=1;aspect=fixed;fillColor=#FFB703;" parent="1" vertex="1">
          <mxGeometry x="333" y="219" width="38" height="38" as="geometry" />
        </mxCell>
        <mxCell id="7qTobX-p7lnl2lWaWMDp-45" value="&lt;b style=&quot;border-color: var(--border-color); font-family: &amp;quot;Times New Roman&amp;quot;; font-size: 18px;&quot;&gt;B&lt;/b&gt;" style="whiteSpace=wrap;html=1;aspect=fixed;fillColor=#90C9E6;" parent="1" vertex="1">
          <mxGeometry x="219" y="271" width="38" height="38" as="geometry" />
        </mxCell>
        <mxCell id="7qTobX-p7lnl2lWaWMDp-46" value="" style="whiteSpace=wrap;html=1;aspect=fixed;fillColor=#90C9E6;" parent="1" vertex="1">
          <mxGeometry x="257" y="271" width="38" height="38" as="geometry" />
        </mxCell>
        <mxCell id="7qTobX-p7lnl2lWaWMDp-47" value="" style="whiteSpace=wrap;html=1;aspect=fixed;fillColor=#90C9E6;" parent="1" vertex="1">
          <mxGeometry x="295" y="271" width="38" height="38" as="geometry" />
        </mxCell>
        <mxCell id="7qTobX-p7lnl2lWaWMDp-48" value="" style="whiteSpace=wrap;html=1;aspect=fixed;fillColor=#90C9E6;" parent="1" vertex="1">
          <mxGeometry x="333" y="271" width="38" height="38" as="geometry" />
        </mxCell>
        <mxCell id="7qTobX-p7lnl2lWaWMDp-49" value="&lt;b style=&quot;border-color: var(--border-color); font-family: &amp;quot;Times New Roman&amp;quot;; font-size: 18px;&quot;&gt;C&lt;/b&gt;" style="whiteSpace=wrap;html=1;aspect=fixed;fillColor=#FB8402;" parent="1" vertex="1">
          <mxGeometry x="219" y="321" width="38" height="38" as="geometry" />
        </mxCell>
        <mxCell id="7qTobX-p7lnl2lWaWMDp-50" value="" style="whiteSpace=wrap;html=1;aspect=fixed;fillColor=#FB8402;" parent="1" vertex="1">
          <mxGeometry x="257" y="321" width="38" height="38" as="geometry" />
        </mxCell>
        <mxCell id="7qTobX-p7lnl2lWaWMDp-51" value="" style="whiteSpace=wrap;html=1;aspect=fixed;fillColor=#FB8402;" parent="1" vertex="1">
          <mxGeometry x="295" y="321" width="38" height="38" as="geometry" />
        </mxCell>
        <mxCell id="7qTobX-p7lnl2lWaWMDp-52" value="" style="whiteSpace=wrap;html=1;aspect=fixed;fillColor=#FB8402;" parent="1" vertex="1">
          <mxGeometry x="333" y="321" width="38" height="38" as="geometry" />
        </mxCell>
        <mxCell id="7qTobX-p7lnl2lWaWMDp-53" value="&lt;b style=&quot;border-color: var(--border-color); font-family: &amp;quot;Times New Roman&amp;quot;; font-size: 18px;&quot;&gt;D&lt;/b&gt;" style="whiteSpace=wrap;html=1;aspect=fixed;fillColor=#219EBC;" parent="1" vertex="1">
          <mxGeometry x="219" y="371" width="38" height="38" as="geometry" />
        </mxCell>
        <mxCell id="7qTobX-p7lnl2lWaWMDp-54" value="" style="whiteSpace=wrap;html=1;aspect=fixed;fillColor=#219EBC;" parent="1" vertex="1">
          <mxGeometry x="257" y="371" width="38" height="38" as="geometry" />
        </mxCell>
        <mxCell id="7qTobX-p7lnl2lWaWMDp-55" value="" style="whiteSpace=wrap;html=1;aspect=fixed;fillColor=#219EBC;" parent="1" vertex="1">
          <mxGeometry x="295" y="371" width="38" height="38" as="geometry" />
        </mxCell>
        <mxCell id="7qTobX-p7lnl2lWaWMDp-56" value="" style="whiteSpace=wrap;html=1;aspect=fixed;fillColor=#219EBC;" parent="1" vertex="1">
          <mxGeometry x="333" y="371" width="38" height="38" as="geometry" />
        </mxCell>
      </root>
    </mxGraphModel>
  </diagram>
</mxfile>
